<svg id="Layer_7_copy" data-name="Layer 7 copy" xmlns="http://www.w3.org/2000/svg" viewBox="0 0 256 256"><defs><style>.cls-1{fill:#29662b;}.cls-2{fill:#71bf00;}.cls-3,.cls-4{fill:#fff;}.cls-3{opacity:0.8;}</style></defs><title>SingularJS</title><polygon class="cls-1" points="128 16 32 48 48 208 128 240 208 208 224 48 128 16 128 16"/><polygon class="cls-1" points="208 208 224 48 128 16 32 48 48 208 128 240 208 208"/><polyline class="cls-2" points="128 30.76 128 224.92 61.09 198.16 47.04 57.74 128 30.76"/><polygon class="cls-3" points="187.96 117 128 117 128 139 163.65 139 160.33 172.14 128 185.07 128 208.77 180.9 187.61 187.96 117"/><polygon class="cls-3" points="128 69.76 169.2 83.49 168.04 95 190.16 95 192.84 68.18 128 46.57 128 69.76"/><polygon class="cls-4" points="128 117 90.15 117 86.8 83.49 128 69.76 128 69.76 128 46.57 128 46.57 63.16 68.18 70.25 139 128 139 128 117"/><polygon class="cls-4" points="128 185.07 128 185.07 95.67 172.14 94.55 161 72.44 161 75.11 187.61 128 208.77 128 208.77 128 185.07"/></svg>