<svg id="Layer_8" data-name="Layer 8" xmlns="http://www.w3.org/2000/svg" viewBox="0 0 256 256">
	<path fill="#29662b" d="M128,240,48,208,32,48l96-32,96,32L208,208Z"/>
	<path fill="#71bf00" d="M128,30.76l81,27-14,140.41L128,224.92,61.09,198.16,47,57.74l81-27"/>
	<path fill="#fff" d="M188,117l-7.06,70.61L128,208.77,75.11,187.61,72.44,161H94.55l1.11,11.14L128,185.07l32.33-12.93L163.65,139H70.24L63.16,68.18,128,46.57l64.84,21.61L190.16,95H168l1.15-11.51L128,69.76,86.8,83.49,90.15,117Z"/>
	<path fill="#000" opacity="0.2" d="M128,240V16l96,32L208,208Z"/>
</svg>